<?xml version="1.0" encoding="UTF-8" standalone="no"?>
<svg
   xmlns:dc="http://purl.org/dc/elements/1.1/"
   xmlns:cc="http://creativecommons.org/ns#"
   xmlns:rdf="http://www.w3.org/1999/02/22-rdf-syntax-ns#"
   xmlns:svg="http://www.w3.org/2000/svg"
   xmlns="http://www.w3.org/2000/svg"
   xmlns:sodipodi="http://sodipodi.sourceforge.net/DTD/sodipodi-0.dtd"
   xmlns:inkscape="http://www.inkscape.org/namespaces/inkscape"
   version="1.1"
   id="svg2"
   xml:space="preserve"
   width="793.70667"
   height="396.85333"
   viewBox="0 0 793.70667 396.85333"
   sodipodi:docname="Kvarteret_Hovedlogo_BW_CMYK.eps"><metadata
     id="metadata8"><rdf:RDF><cc:Work
         rdf:about=""><dc:format>image/svg+xml</dc:format><dc:type
           rdf:resource="http://purl.org/dc/dcmitype/StillImage" /></cc:Work></rdf:RDF></metadata><defs
     id="defs6" /><sodipodi:namedview
     bordercolor="#666666"
     borderopacity="1"
     objecttolerance="10"
     gridtolerance="10"
     guidetolerance="10"
     inkscape:pageopacity="0"
     inkscape:pageshadow="2"
     inkscape:window-width="640"
     inkscape:window-height="480"
     id="namedview4" /><g
     id="g10"
     inkscape:groupmode="layer"
     inkscape:label="ink_ext_XXXXXX"
     transform="matrix(1.3333333,0,0,-1.3333333,0,396.85333)"><g
       id="g12"
       transform="scale(0.1)"><path
         d="M 2976.4,2976.4 H 74.4102 C 33.3164,2976.4 0,2943.09 0,2901.99 V 74.4102 C 0,33.3086 33.3164,0 74.4102,0 H 2976.4 5878.39 c 41.09,0 74.41,33.3086 74.41,74.4102 V 2901.99 c 0,41.1 -33.32,74.41 -74.41,74.41 H 2976.4"
         style="fill:transparent;fill-opacity:1;fill-rule:nonzero;stroke:none"
         id="path14" /><path
         d="m 817.984,2237.44 c 0,123.35 -59.273,196.23 -159.39,196.23 H 544.059 v -392.45 h 114.535 c 100.117,0 159.39,72.88 159.39,196.22 z m 88.09,0 c 0,-172.2 -95.308,-280.32 -247.48,-280.32 H 475.18 l -19.223,18.42 v 523.81 l 19.223,18.42 h 183.414 c 152.172,0 247.48,-108.13 247.48,-280.33"
         style="fill:#f54b4b;fill-opacity:1;fill-rule:nonzero;stroke:none"
         id="path16" /><path
         d="M 1113.49,2433.67 V 2289.5 h 237.08 l 19.22,-18.41 v -46.46 l -19.22,-18.42 h -237.08 v -164.99 h 268.32 l 19.21,-18.42 v -47.26 l -19.21,-18.42 h -337.2 l -19.22,18.42 v 523.81 l 19.22,18.42 h 337.2 l 19.21,-18.42 v -47.25 l -19.21,-18.43 h -268.32"
         style="fill:#f54b4b;fill-opacity:1;fill-rule:nonzero;stroke:none"
         id="path18" /><path
         d="m 1923.99,2499.35 v -47.25 l -19.22,-18.43 h -156.99 v -458.13 l -19.22,-18.42 h -49.66 l -19.21,18.42 v 458.13 H 1503.5 l -19.22,18.43 v 47.25 l 19.22,18.42 h 401.27 l 19.22,-18.42"
         style="fill:#f54b4b;fill-opacity:1;fill-rule:nonzero;stroke:none"
         id="path20" /><path
         d="m 729.871,1440.14 -79.289,230.67 -80.098,-230.67 z m 162.602,-201.84 -8.821,-30.43 h -72.886 l -52.055,148.98 H 541.656 l -52.054,-148.98 h -72.891 l -8.805,30.43 184.211,511.8 20.024,18.42 h 76.886 l 19.219,-18.42 184.227,-511.8"
         style="fill:#f54b4b;fill-opacity:1;fill-rule:nonzero;stroke:none"
         id="path22" /><path
         d="m 1433.85,1238.3 -8.8,-30.43 h -74.48 l -175.41,250.69 -93.7,-111.33 v -120.94 l -19.24,-18.42 h -49.65 l -19.226,18.42 v 523.81 l 19.226,18.42 h 49.65 l 19.24,-18.42 v -277.92 l 245.07,296.34 h 75.3 l 8.8,-30.44 -177.8,-211.44 201.02,-288.34"
         style="fill:#f54b4b;fill-opacity:1;fill-rule:nonzero;stroke:none"
         id="path24" /><path
         d="m 1823.86,1440.14 -79.28,230.67 -80.1,-230.67 z m 162.6,-201.84 -8.82,-30.43 h -72.88 l -52.06,148.98 h -217.05 l -52.06,-148.98 h -72.89 l -8.81,30.43 184.22,511.8 20.02,18.42 h 76.89 l 19.22,-18.42 184.22,-511.8"
         style="fill:#f54b4b;fill-opacity:1;fill-rule:nonzero;stroke:none"
         id="path26" /><path
         d="m 2449.36,1488.19 c 0,123.34 -59.27,196.23 -159.39,196.23 h -114.53 v -392.46 h 114.53 c 100.12,0 159.39,72.88 159.39,196.23 z m 88.09,0 c 0,-172.19 -95.3,-280.32 -247.48,-280.32 h -183.41 l -19.22,18.42 v 523.81 l 19.22,18.42 h 183.41 c 152.18,0 247.48,-108.13 247.48,-280.33"
         style="fill:#f54b4b;fill-opacity:1;fill-rule:nonzero;stroke:none"
         id="path28" /><path
         d="m 2744.87,1684.42 v -144.17 h 237.07 l 19.23,-18.41 v -46.46 l -19.23,-18.42 h -237.07 v -165 h 268.31 l 19.22,-18.41 v -47.26 l -19.22,-18.42 h -337.19 l -19.22,18.42 v 523.81 l 19.22,18.42 h 337.19 l 19.22,-18.42 v -47.26 l -19.22,-18.42 h -268.31"
         style="fill:#f54b4b;fill-opacity:1;fill-rule:nonzero;stroke:none"
         id="path30" /><path
         d="m 3716.36,1231.9 -14.41,-24.03 h -70.48 l -36.84,415.68 -125.75,-324.37 -21.63,-19.23 h -56.86 l -21.63,19.23 -125.74,324.37 -36.85,-415.68 h -71.28 l -13.61,24.03 49.65,518.2 20.02,18.42 h 70.49 l 19.21,-18.42 138.57,-349.21 136.96,349.21 20.02,18.42 h 70.49 l 19.22,-18.42 50.45,-518.2"
         style="fill:#f54b4b;fill-opacity:1;fill-rule:nonzero;stroke:none"
         id="path32" /><path
         d="m 3841.27,1226.29 v 523.81 l 19.22,18.42 h 49.66 l 19.22,-18.42 v -523.81 l -19.22,-18.42 h -49.66 l -19.22,18.42"
         style="fill:#f54b4b;fill-opacity:1;fill-rule:nonzero;stroke:none"
         id="path34" /><path
         d="m 4045.49,1367.26 8.82,10.41 h 70.47 l 8.81,-10.41 c 9.61,-60.88 48.86,-88.11 127.35,-88.11 73.7,0 113.74,31.24 113.74,88.91 0,51.26 -30.43,72.88 -119.35,84.9 -139.35,19.22 -197.03,64.86 -197.03,155.37 0,103.32 78.51,173 196.24,173 113.72,0 185.02,-56.86 197.02,-156.97 l -8.82,-10.42 h -70.46 l -8.82,10.42 c -7.21,48.04 -43.25,72.88 -108.92,72.88 -66.47,0 -108.13,-32.04 -108.13,-83.3 0,-44.86 30.44,-63.28 132.96,-77.69 131.35,-19.22 183.41,-65.67 183.41,-164.99 0,-108.93 -76.88,-176.21 -201.84,-176.21 -126.54,0 -201.03,59.28 -215.45,172.21"
         style="fill:#f54b4b;fill-opacity:1;fill-rule:nonzero;stroke:none"
         id="path36" /><path
         d="m 5021.81,1238.3 -8.82,-30.43 h -74.49 l -175.39,250.69 -93.73,-111.33 v -120.94 l -19.2,-18.42 h -49.67 l -19.21,18.42 v 523.81 l 19.21,18.42 h 49.67 l 19.2,-18.42 v -277.92 l 245.1,296.34 h 75.28 l 8.81,-30.44 -177.81,-211.44 201.05,-288.34"
         style="fill:#f54b4b;fill-opacity:1;fill-rule:nonzero;stroke:none"
         id="path38" /><path
         d="m 5209.98,1684.42 v -144.17 h 237.07 l 19.23,-18.41 v -46.46 l -19.23,-18.42 h -237.07 v -165 h 268.31 l 19.23,-18.41 v -47.26 l -19.23,-18.42 H 5141.1 l -19.22,18.42 v 523.81 l 19.22,18.42 h 337.19 l 19.23,-18.42 v -47.26 l -19.23,-18.42 h -268.31"
         style="fill:#f54b4b;fill-opacity:1;fill-rule:nonzero;stroke:none"
         id="path40" /><path
         d="m 896.465,489.059 -8.809,-30.438 H 813.168 L 637.77,709.32 544.059,597.988 V 477.051 l -19.223,-18.43 H 475.18 l -19.223,18.43 v 523.799 l 19.223,18.43 h 49.656 l 19.223,-18.43 V 722.93 l 245.086,296.35 H 864.43 L 873.238,988.84 695.434,777.391 896.465,489.059"
         style="fill:#f54b4b;fill-opacity:1;fill-rule:nonzero;stroke:none"
         id="path42" /><path
         d="m 1418.64,988.84 -173.01,-511.789 -19.21,-18.43 h -76.89 l -19.23,18.43 -172.995,511.789 8.8,30.44 h 72.885 l 148.98,-460.542 148.97,460.542 h 72.88 l 8.82,-30.44"
         style="fill:#f54b4b;fill-opacity:1;fill-rule:nonzero;stroke:none"
         id="path44" /><path
         d="m 1731.78,690.898 -79.29,230.661 -80.09,-230.661 z m 162.59,-201.839 -8.81,-30.438 h -72.88 l -52.07,148.981 H 1543.56 L 1491.5,458.621 h -72.88 l -8.82,30.438 184.22,511.791 20.03,18.43 h 76.89 l 19.22,-18.43 184.21,-511.791"
         style="fill:#f54b4b;fill-opacity:1;fill-rule:nonzero;stroke:none"
         id="path46" /><path
         d="m 2083.35,767.781 h 135.37 c 68.88,0 95.3,24.028 95.3,83.301 0,60.066 -27.22,84.098 -95.3,84.098 h -135.37 z m 334,-278.722 -8.81,-30.438 h -74.49 L 2177.07,683.68 h -93.72 V 477.051 l -19.21,-18.43 h -49.66 l -19.22,18.43 v 523.799 l 19.22,18.43 h 202.63 c 121.75,0 185.02,-56.87 185.02,-168.198 0,-91.301 -42.45,-145.781 -125.75,-161.781 l 140.97,-200.242"
         style="fill:#f54b4b;fill-opacity:1;fill-rule:nonzero;stroke:none"
         id="path48" /><path
         d="M 2900.28,1000.85 V 953.602 L 2881.07,935.18 H 2724.08 V 477.051 l -19.22,-18.43 h -49.65 l -19.23,18.43 V 935.18 h -156.19 l -19.21,18.422 v 47.248 l 19.21,18.43 h 401.28 l 19.21,-18.43"
         style="fill:#f54b4b;fill-opacity:1;fill-rule:nonzero;stroke:none"
         id="path50" /><path
         d="M 3087.68,935.18 V 791.02 h 237.08 l 19.2,-18.43 v -46.461 l -19.2,-18.41 h -237.08 v -165 h 268.3 l 19.23,-18.41 v -47.258 l -19.23,-18.43 h -337.19 l -19.22,18.43 v 523.799 l 19.22,18.43 h 337.19 l 19.23,-18.43 v -47.248 l -19.23,-18.422 h -268.3"
         style="fill:#f54b4b;fill-opacity:1;fill-rule:nonzero;stroke:none"
         id="path52" /><path
         d="m 3576.2,767.781 h 135.37 c 68.88,0 95.31,24.028 95.31,83.301 0,60.066 -27.23,84.098 -95.31,84.098 H 3576.2 Z m 334,-278.722 -8.82,-30.438 H 3826.9 L 3669.92,683.68 H 3576.2 V 477.051 l -19.21,-18.43 h -49.67 l -19.21,18.43 v 523.799 l 19.21,18.43 h 202.64 c 121.75,0 185.02,-56.87 185.02,-168.198 0,-91.301 -42.44,-145.781 -125.75,-161.781 L 3910.2,489.059"
         style="fill:#f54b4b;fill-opacity:1;fill-rule:nonzero;stroke:none"
         id="path54" /><path
         d="m 4080.42,2333.61 c 0,67.67 7.1,135.43 21.07,201.66 h 46.47 v -63.31 h 12.62 12.6 v 63.31 h 46.47 c 13.97,-66.23 21.07,-133.99 21.07,-201.66 v -1.05 c 0,-45.13 -5.46,-90.05 -16.19,-133.82 -5.12,-20.21 -14.88,-66.49 -63.95,-66.49 -49.1,0 -58.86,46.3 -63.97,66.51 -10.73,43.76 -16.19,88.68 -16.19,133.8 z m -105.25,13.43 114.01,-212.4 3.63,-11.08 v -81.32 c 0,-9.66 2.04,-20.29 5.69,-28.61 l -54.25,-34.77 13.93,-21.74 55.01,35.26 c 11.98,-11.73 27.86,-19.34 47.39,-19.34 37.86,0 67.75,27.5 67.75,69.2 v 81.32 l 3.63,11.08 114.02,212.4 -23.68,12.78 -67.09,-124.25 c 5.16,32.64 8.62,65.63 9.05,98.75 0.31,24.23 -0.51,48.48 -2.48,72.68 -3.68,45.13 -9.72,90.63 -16.83,128.27 h 34.35 v 25.82 h -118.72 -118.74 v -25.82 h 34.35 c -7.12,-37.64 -13.14,-83.14 -16.82,-128.27 -1.98,-24.2 -2.81,-48.45 -2.49,-72.68 0.43,-33.12 3.89,-66.11 9.06,-98.75 l -67.1,124.25 -23.67,-12.78"
         style="fill:#f54b4b;fill-opacity:1;fill-rule:nonzero;stroke:none"
         id="path56" /><path
         d="m 4623.57,2184.61 c 0,-67.68 -7.09,-135.43 -21.07,-201.66 h -46.46 v 63.3 h -12.61 -12.62 v -63.3 h -46.46 c -13.98,66.23 -21.07,133.98 -21.07,201.66 v 1.05 c 0,45.12 5.45,90.05 16.19,133.81 5.11,20.22 14.89,66.5 63.96,66.5 49.08,0 58.85,-46.31 63.96,-66.51 10.73,-43.76 16.18,-88.68 16.18,-133.8 z m 105.26,-13.43 -114.01,212.39 -3.64,11.08 v 81.32 c 0,9.67 -2.03,20.3 -5.67,28.61 l 54.24,34.77 -13.94,21.74 -55.01,-35.25 c -11.97,11.72 -27.86,19.33 -47.37,19.33 -37.86,0 -67.77,-27.49 -67.77,-69.2 v -81.32 l -3.63,-11.08 -114.01,-212.39 23.68,-12.79 67.09,124.26 c -5.16,-32.64 -8.62,-65.64 -9.05,-98.76 -0.32,-24.22 0.5,-48.47 2.48,-72.68 3.68,-45.12 9.71,-90.63 16.82,-128.26 h -34.34 v -25.83 h 118.73 118.73 v 25.83 h -34.36 c 7.12,37.63 13.16,83.14 16.83,128.26 1.97,24.21 2.8,48.46 2.49,72.68 -0.44,33.12 -3.9,66.12 -9.06,98.76 l 67.1,-124.26 23.67,12.79"
         style="fill:#f54b4b;fill-opacity:1;fill-rule:nonzero;stroke:none"
         id="path58" /><path
         d="m 4846.13,2333.61 c 0,67.67 7.09,135.43 21.08,201.66 h 46.46 v -63.31 h 12.61 12.62 v 63.31 h 46.45 c 13.99,-66.23 21.08,-133.99 21.08,-201.66 v -1.05 c 0,-45.13 -5.45,-90.05 -16.2,-133.82 -5.1,-20.21 -14.88,-66.49 -63.95,-66.49 -49.09,0 -58.85,46.3 -63.97,66.51 -10.73,43.76 -16.18,88.68 -16.18,133.8 z m -105.25,13.43 114,-212.4 3.65,-11.08 v -81.32 c 0,-9.66 2.03,-20.29 5.67,-28.61 l -54.24,-34.77 13.94,-21.74 55,35.26 c 11.98,-11.73 27.86,-19.34 47.38,-19.34 37.86,0 67.75,27.5 67.75,69.2 v 81.32 l 3.65,11.08 114.01,212.4 -23.68,12.78 -67.1,-124.25 c 5.16,32.64 8.63,65.63 9.06,98.75 0.31,24.23 -0.51,48.48 -2.48,72.68 -3.68,45.13 -9.72,90.63 -16.83,128.27 h 34.35 v 25.82 h -118.73 -118.73 v -25.82 h 34.34 c -7.1,-37.64 -13.14,-83.14 -16.81,-128.27 -1.98,-24.2 -2.8,-48.45 -2.49,-72.68 0.43,-33.12 3.89,-66.11 9.06,-98.75 l -67.1,124.25 -23.67,-12.78"
         style="fill:#f54b4b;fill-opacity:1;fill-rule:nonzero;stroke:none"
         id="path60" /><path
         d="m 5389.29,2184.61 c 0,-67.68 -7.1,-135.43 -21.08,-201.66 h -46.46 v 63.3 h -12.62 -12.61 v -63.3 h -46.46 c -13.98,66.23 -21.08,133.98 -21.08,201.66 v 1.05 c 0,45.12 5.46,90.05 16.2,133.81 5.11,20.22 14.88,66.5 63.95,66.5 49.09,0 58.86,-46.31 63.97,-66.51 10.73,-43.76 16.19,-88.68 16.19,-133.8 z m 105.25,-13.43 -114.01,212.39 -3.64,11.08 v 81.32 c 0,9.67 -2.04,20.3 -5.68,28.61 l 54.25,34.77 -13.94,21.74 -55.01,-35.25 c -11.97,11.72 -27.86,19.33 -47.38,19.33 -37.86,0 -67.75,-27.49 -67.75,-69.2 v -81.32 l -3.64,-11.08 -114.01,-212.39 23.67,-12.79 67.1,124.26 c -5.16,-32.64 -8.62,-65.64 -9.05,-98.76 -0.31,-24.22 0.51,-48.47 2.48,-72.68 3.68,-45.12 9.72,-90.63 16.83,-128.26 h -34.36 v -25.83 h 118.73 118.73 v 25.83 h -34.34 c 7.11,37.63 13.14,83.14 16.82,128.26 1.97,24.21 2.79,48.46 2.48,72.68 -0.43,33.12 -3.88,66.12 -9.05,98.76 l 67.1,-124.26 23.67,12.79"
         style="fill:#f54b4b;fill-opacity:1;fill-rule:nonzero;stroke:none"
         id="path62" /><path
         d="m 3078.05,2295.54 c -67.68,0 -135.43,7.09 -201.66,21.07 v 46.46 h 63.3 v 12.62 12.61 h -63.3 v 46.46 c 66.23,13.98 133.98,21.08 201.66,21.08 h 1.04 c 45.13,0 90.06,-5.46 133.82,-16.2 20.22,-5.11 66.49,-14.88 66.49,-63.95 0,-49.09 -46.3,-58.85 -66.51,-63.97 -43.76,-10.73 -88.67,-16.18 -133.8,-16.18 z m -13.43,-105.25 212.38,114 11.09,3.64 h 81.31 c 9.67,0 20.31,2.04 28.62,5.68 l 34.76,-54.24 21.75,13.93 -35.25,55.01 c 11.72,11.98 19.32,27.86 19.32,47.38 0,37.86 -27.49,67.75 -69.2,67.75 h -81.31 l -11.09,3.64 -212.38,114.01 -12.78,-23.67 124.24,-67.1 c -32.63,5.16 -65.63,8.63 -98.76,9.06 -24.21,0.31 -48.47,-0.51 -72.67,-2.49 -45.12,-3.68 -90.63,-9.71 -128.26,-16.82 v 34.35 h -25.83 v -118.73 -118.73 h 25.83 v 34.34 c 37.63,-7.1 83.14,-13.14 128.26,-16.82 24.2,-1.97 48.46,-2.8 72.67,-2.48 33.13,0.43 66.13,3.89 98.76,9.05 l -124.24,-67.09 12.78,-23.67"
         style="fill:#f54b4b;fill-opacity:1;fill-rule:nonzero;stroke:none"
         id="path64" /><path
         d="m 3681.61,2222.66 c 67.68,0 135.43,-7.09 201.66,-21.07 v -46.46 h -63.3 v -12.62 -12.61 h 63.3 v -46.47 c -66.23,-13.98 -133.98,-21.07 -201.66,-21.07 h -1.04 c -45.13,0 -90.05,5.46 -133.82,16.19 -20.22,5.11 -66.5,14.89 -66.5,63.96 0,49.09 46.31,58.85 66.52,63.97 43.76,10.72 88.68,16.18 133.8,16.18 z m 13.44,105.26 -212.39,-114.01 -11.09,-3.64 h -81.32 c -9.66,0 -20.29,-2.04 -28.61,-5.68 l -34.76,54.25 -21.75,-13.95 35.25,-55 c -11.72,-11.98 -19.33,-27.86 -19.33,-47.38 0,-37.86 27.49,-67.76 69.2,-67.76 h 81.32 l 11.09,-3.64 212.39,-114 12.77,23.67 -124.25,67.1 c 32.65,-5.17 65.64,-8.63 98.76,-9.06 24.22,-0.31 48.48,0.51 72.68,2.48 45.13,3.68 90.63,9.72 128.26,16.83 v -34.35 h 25.83 v 118.73 118.73 h -25.83 v -34.35 c -37.63,7.11 -83.13,13.15 -128.26,16.83 -24.2,1.97 -48.46,2.8 -72.68,2.48 -33.12,-0.43 -66.11,-3.9 -98.76,-9.06 l 124.25,67.11 -12.77,23.67"
         style="fill:#f54b4b;fill-opacity:1;fill-rule:nonzero;stroke:none"
         id="path66" /><path
         d="m 2685.52,2184.61 c 0,-67.68 -7.1,-135.43 -21.08,-201.66 h -46.46 v 63.3 h -12.61 -12.62 v -63.3 h -46.46 c -13.98,66.23 -21.07,133.98 -21.07,201.66 v 1.05 c 0,45.12 5.46,90.05 16.19,133.81 5.11,20.22 14.88,66.5 63.96,66.5 49.09,0 58.85,-46.31 63.96,-66.52 10.73,-43.75 16.19,-88.67 16.19,-133.79 z m -341.7,0 c 0,-67.68 -7.09,-135.43 -21.07,-201.66 h -46.46 v 63.3 h -12.61 -12.62 v -63.3 h -46.46 c -13.98,66.23 -21.07,133.98 -21.07,201.66 v 1.05 c 0,45.12 5.45,90.05 16.19,133.81 5.11,20.22 14.88,66.5 63.96,66.5 49.08,0 58.85,-46.31 63.96,-66.52 10.73,-43.75 16.18,-88.67 16.18,-133.79 z m 446.95,-13.43 -114.01,212.39 -3.63,11.08 v 81.32 c 0,9.67 -2.04,20.3 -5.68,28.61 l 54.24,34.77 -13.94,21.74 -55,-35.25 c -11.98,11.72 -27.86,19.33 -47.38,19.33 -37.87,0 -67.76,-27.5 -67.76,-69.2 v -81.32 l -3.64,-11.08 -99.45,-185.27 -99.45,185.27 -3.63,11.08 v 81.32 c 0,9.67 -2.04,20.3 -5.68,28.61 l 54.24,34.77 -13.94,21.74 -55,-35.25 c -11.98,11.72 -27.87,19.33 -47.38,19.33 -37.87,0 -67.76,-27.5 -67.76,-69.2 v -81.32 l -3.64,-11.08 -114.01,-212.39 23.68,-12.79 67.09,124.26 c -5.16,-32.64 -8.62,-65.64 -9.05,-98.76 -0.32,-24.22 0.51,-48.47 2.48,-72.68 3.68,-45.12 9.71,-90.63 16.83,-128.26 h -34.35 v -25.83 h 118.73 118.73 v 25.83 h -34.35 c 7.11,37.63 13.15,83.14 16.82,128.26 1.98,24.21 2.8,48.46 2.48,72.68 -0.43,33.12 -3.89,66.12 -9.05,98.76 l 67.1,-124.26 h 18.23 l 67.1,124.26 c -5.17,-32.64 -8.63,-65.64 -9.06,-98.76 -0.31,-24.22 0.51,-48.47 2.48,-72.68 3.68,-45.12 9.72,-90.63 16.83,-128.26 h -34.35 v -25.83 h 118.73 118.73 v 25.83 h -34.35 c 7.11,37.63 13.15,83.14 16.83,128.26 1.97,24.21 2.79,48.46 2.48,72.68 -0.43,33.12 -3.89,66.12 -9.06,98.76 l 67.1,-124.26 23.67,12.79"
         style="fill:#f54b4b;fill-opacity:1;fill-rule:nonzero;stroke:none"
         id="path68" /><path
         d="m 5390.79,686.109 c 0,-67.668 -7.09,-135.429 -21.06,-201.66 h -46.47 v 63.301 h -12.62 -12.6 v -63.301 h -46.47 c -13.98,66.231 -21.07,133.992 -21.07,201.66 v 1.051 c 0,45.129 5.46,90.059 16.19,133.82 5.11,20.211 14.88,66.489 63.95,66.489 49.1,0 58.86,-46.309 63.97,-66.508 10.73,-43.762 16.18,-88.68 16.18,-133.801 z m -341.69,0 c 0,-67.668 -7.09,-135.429 -21.07,-201.66 h -46.46 v 63.301 h -12.61 -12.62 v -63.301 h -46.46 c -13.98,66.231 -21.07,133.992 -21.07,201.66 v 1.051 c 0,45.129 5.46,90.059 16.19,133.82 5.11,20.211 14.88,66.489 63.96,66.489 49.09,0 58.85,-46.309 63.96,-66.508 10.73,-43.762 16.18,-88.68 16.18,-133.801 z m 446.95,-13.429 -114.01,212.39 -3.63,11.078 v 81.321 c 0,9.672 -2.04,20.301 -5.69,28.611 l 54.25,34.77 -13.93,21.75 -55.01,-35.26 c -11.99,11.72 -27.86,19.33 -47.39,19.33 -37.86,0 -67.75,-27.49 -67.75,-69.201 v -81.321 l -3.64,-11.078 -99.45,-185.261 -99.45,185.261 -3.63,11.078 v 81.321 c 0,9.672 -2.04,20.301 -5.68,28.611 l 54.23,34.77 -13.93,21.75 -55,-35.26 c -11.98,11.72 -27.86,19.33 -47.38,19.33 -37.87,0 -67.76,-27.49 -67.76,-69.201 v -81.321 l -3.64,-11.078 -114.01,-212.39 23.68,-12.782 67.1,124.25 c -5.17,-32.636 -8.64,-65.628 -9.07,-98.757 -0.31,-24.219 0.52,-48.481 2.48,-72.672 3.69,-45.129 9.72,-90.637 16.83,-128.27 h -34.35 v -25.828 h 118.74 118.73 v 25.828 h -34.35 c 7.11,37.633 13.14,83.141 16.83,128.27 1.97,24.191 2.79,48.453 2.48,72.672 -0.43,33.129 -3.9,66.121 -9.07,98.757 l 67.1,-124.25 h 18.24 l 67.1,124.25 c -5.17,-32.636 -8.63,-65.628 -9.06,-98.757 -0.32,-24.219 0.51,-48.481 2.48,-72.672 3.68,-45.129 9.71,-90.637 16.83,-128.27 h -34.36 v -25.828 h 118.73 118.74 v 25.828 h -34.35 c 7.11,37.633 13.14,83.141 16.83,128.27 1.97,24.191 2.79,48.453 2.48,72.672 -0.43,33.129 -3.9,66.121 -9.06,98.757 l 67.09,-124.25 23.68,12.782"
         style="fill:#f54b4b;fill-opacity:1;fill-rule:nonzero;stroke:none"
         id="path70" /><path
         d="m 4162.79,835.109 c 0,67.672 7.09,135.43 21.08,201.661 h 46.46 v -63.301 h 12.61 12.62 v 63.301 h 46.46 c 13.98,-66.231 21.07,-133.989 21.07,-201.661 v -1.05 c 0,-45.118 -5.45,-90.059 -16.19,-133.809 -5.11,-20.219 -14.89,-66.5 -63.96,-66.5 -49.08,0 -58.85,46.309 -63.96,66.512 -10.73,43.758 -16.19,88.687 -16.19,133.797 z m 341.69,0 c 0,67.672 7.1,135.43 21.08,201.661 h 46.46 v -63.301 h 12.61 12.62 v 63.301 h 46.46 c 13.98,-66.231 21.08,-133.989 21.08,-201.661 v -1.05 c 0,-45.118 -5.46,-90.059 -16.2,-133.809 -5.11,-20.219 -14.88,-66.5 -63.96,-66.5 -49.08,0 -58.85,46.309 -63.96,66.512 -10.73,43.758 -16.19,88.687 -16.19,133.797 z m -446.94,13.442 114.01,-212.403 3.64,-11.078 v -81.32 c 0,-9.668 2.03,-20.289 5.68,-28.609 l -54.25,-34.77 13.94,-21.75 55.01,35.258 c 11.97,-11.719 27.86,-19.328 47.37,-19.328 37.87,0 67.76,27.488 67.76,69.199 v 81.32 l 3.64,11.078 99.45,185.274 99.45,-185.274 3.64,-11.078 v -81.32 c 0,-9.668 2.03,-20.289 5.68,-28.609 l -54.25,-34.77 13.94,-21.75 55.01,35.258 c 11.97,-11.719 27.86,-19.328 47.37,-19.328 37.87,0 67.76,27.488 67.76,69.199 v 81.32 l 3.64,11.078 114.01,212.403 -23.67,12.769 -67.1,-124.25 c 5.16,32.641 8.62,65.641 9.05,98.762 0.31,24.219 -0.51,48.477 -2.48,72.68 -3.68,45.117 -9.72,90.629 -16.83,128.258 h 34.35 v 25.83 h -118.73 -118.72 v -25.83 h 34.34 c -7.11,-37.629 -13.14,-83.141 -16.82,-128.258 -1.97,-24.203 -2.8,-48.461 -2.48,-72.68 0.43,-33.121 3.88,-66.121 9.05,-98.762 l -67.1,124.25 h -18.23 l -67.09,-124.25 c 5.15,32.641 8.62,65.641 9.05,98.762 0.31,24.219 -0.51,48.477 -2.48,72.68 -3.68,45.117 -9.72,90.629 -16.83,128.258 h 34.35 v 25.83 h -118.73 -118.73 v -25.83 h 34.35 c -7.11,-37.629 -13.15,-83.141 -16.82,-128.258 -1.97,-24.203 -2.79,-48.461 -2.48,-72.68 0.43,-33.121 3.88,-66.121 9.05,-98.762 l -67.1,124.25 -23.67,-12.769"
         style="fill:#f54b4b;fill-opacity:1;fill-rule:nonzero;stroke:none"
         id="path72" /></g></g></svg>
